# Exported from Wings 3D 1.4.1
mtllib skyscraper_withbase.mtl
o cube2
#68 vertices, 64 faces
v -178.92000000 -7726.82683197 178.92000000
v -178.92000000 -1.06123197 178.92000000
v 178.92000000 -1.06123197 178.92000000
v 178.92000000 -7726.82683197 178.92000000
v -178.92000000 -7726.82683197 -178.92000000
v -178.92000000 -1.06123197 -178.92000000
v 178.92000000 -1.06123197 -178.92000000
v 178.92000000 -7726.82683197 -178.92000000
v -156.55800000 -2.18959263 156.55800000
v -156.55800000 109.38301471 87.67248000
v 156.55800000 109.38301471 87.67248000
v 156.55800000 -2.18959263 156.55800000
v -156.55800000 -2.18959263 -156.55800000
v -156.55800000 109.38301471 -87.67248000
v 156.55800000 109.38301471 -87.67248000
v 156.55800000 -2.18959263 -156.55800000
v -156.55800000 149.46587431 87.67248000
v 156.55800000 149.46587431 87.67248000
v 156.55800000 149.46587431 -87.67248000
v -156.55800000 149.46587431 -87.67248000
v -140.95229856 149.46587431 72.06677856
v 140.95229856 149.46587431 72.06677856
v 140.95229856 149.46587431 -72.06677856
v -140.95229856 149.46587431 -72.06677856
v -140.95229856 861.47855257 72.06677856
v 140.95229856 861.47855257 72.06677856
v 140.95229856 861.47855257 -72.06677856
v -140.95229856 861.47855257 -72.06677856
v -57.79044241 1049.91884713 -37.03014872
v 57.79044241 1049.91884713 -37.03014872
v 57.79044241 1049.91884713 -67.29819572
v -57.79044241 1049.91884713 -67.29819572
v -140.95229856 372.90828327 72.06677856
v -100.35803657 435.81457154 51.31154633
v -140.95229856 595.02919987 72.06677856
v -96.41137222 755.28347597 49.29367654
v 140.95229856 372.90828327 72.06677856
v 100.35803657 435.81457154 51.31154633
v 140.95229856 595.02919987 72.06677856
v 96.41137222 755.28347597 49.29367654
v 140.95229856 372.90828327 -72.06677856
v 100.35803657 435.81457154 -51.31154633
v 140.95229856 595.02919987 -72.06677856
v 96.41137222 755.28347597 -49.29367654
v -140.95229856 372.90828327 -72.06677856
v -100.35803657 435.81457154 -51.31154633
v -140.95229856 595.02919987 -72.06677856
v -96.41137222 755.28347597 -49.29367654
v -140.95229856 223.72642857 72.06677856
v 140.95229856 223.72642857 72.06677856
v 140.95229856 223.72642857 -72.06677856
v -140.95229856 223.72642857 -72.06677856
v -100.35803657 382.94105691 51.31154633
v -140.95229856 445.84734517 72.06677856
v -140.95229856 701.75565099 72.06677856
v -96.41137222 806.07769508 49.29367654
v 100.35803657 382.94105691 51.31154633
v 140.95229856 445.84734517 72.06677856
v 140.95229856 701.75565099 72.06677856
v 96.41137222 806.07769508 49.29367654
v 100.35803657 382.94105691 -51.31154633
v 140.95229856 445.84734517 -72.06677856
v 140.95229856 701.75565099 -72.06677856
v 96.41137222 806.07769508 -49.29367654
v -100.35803657 382.94105691 -51.31154633
v -140.95229856 445.84734517 -72.06677856
v -140.95229856 701.75565099 -72.06677856
v -96.41137222 806.07769508 -49.29367654
vn -0.57735027 -0.57735027 0.57735027
vn -0.57735027 0.57735027 0.57735027
vn 0.57735027 0.57735027 0.57735027
vn 0.57735027 -0.57735027 0.57735027
vn -0.57735027 -0.57735027 -0.57735027
vn -0.57735027 0.57735027 -0.57735027
vn 0.57735027 0.57735027 -0.57735027
vn 0.57735027 -0.57735027 -0.57735027
vn -0.71624123 -0.33996822 0.60944246
vn -0.72066668 0.18929895 0.66693736
vn 0.72066668 0.18929895 0.66693736
vn 0.71624123 -0.33996822 0.60944246
vn -0.71624123 -0.33996822 -0.60944246
vn -0.72066668 0.18929895 -0.66693736
vn 0.72066668 0.18929895 -0.66693736
vn 0.71624123 -0.33996822 -0.60944246
vn -0.40824829 0.81649658 0.40824829
vn 0.40824829 0.81649658 0.40824829
vn 0.40824829 0.81649658 -0.40824829
vn -0.40824829 0.81649658 -0.40824829
vn -0.40824829 0.81649658 0.40824829
vn 0.40824829 0.81649658 0.40824829
vn 0.40824829 0.81649658 -0.40824829
vn -0.40824829 0.81649658 -0.40824829
vn -0.68675493 -4.1342329e-2 0.72571239
vn 0.68675493 -4.1342329e-2 0.72571239
vn 0.64459736 -0.21980740 -0.73224242
vn -0.64459736 -0.21980740 -0.73224242
vn -0.40065241 0.83416858 0.37899925
vn 0.40065241 0.83416858 0.37899925
vn 0.46454382 0.72562633 -0.50760758
vn -0.46454382 0.72562633 -0.50760758
vn -0.46539145 0.70230161 0.53868659
vn -0.46539145 -0.70230161 0.53868659
vn -0.70710678 0.0000000e+0 0.70710678
vn -0.63012576 0.36735340 0.68410015
vn 0.46539145 0.70230161 0.53868659
vn 0.46539145 -0.70230161 0.53868659
vn 0.70710678 0.0000000e+0 0.70710678
vn 0.63012576 0.36735340 0.68410015
vn 0.46539145 0.70230161 -0.53868659
vn 0.46539145 -0.70230161 -0.53868659
vn 0.70710678 0.0000000e+0 -0.70710678
vn 0.63012576 0.36735340 -0.68410015
vn -0.46539145 0.70230161 -0.53868659
vn -0.46539145 -0.70230161 -0.53868659
vn -0.70710678 0.0000000e+0 -0.70710678
vn -0.63012576 0.36735340 -0.68410015
vn -0.70710678 0.0000000e+0 0.70710678
vn 0.70710678 0.0000000e+0 0.70710678
vn 0.70710678 0.0000000e+0 -0.70710678
vn -0.70710678 0.0000000e+0 -0.70710678
vn -0.46539145 0.70230161 0.53868659
vn -0.46539145 -0.70230161 0.53868659
vn -0.63012576 0.36735340 0.68410015
vn -0.63366928 -0.35853579 0.68550371
vn 0.46539145 0.70230161 0.53868659
vn 0.46539145 -0.70230161 0.53868659
vn 0.63012576 0.36735340 0.68410015
vn 0.63366928 -0.35853579 0.68550371
vn 0.46539145 0.70230161 -0.53868659
vn 0.46539145 -0.70230161 -0.53868659
vn 0.63012576 0.36735340 -0.68410015
vn 0.63366928 -0.35853579 -0.68550371
vn -0.46539145 0.70230161 -0.53868659
vn -0.46539145 -0.70230161 -0.53868659
vn -0.63012576 0.36735340 -0.68410015
vn -0.63366928 -0.35853579 -0.68550371
g cube2_default
usemtl default
s 1
f 9//9 12//12 11//11 10//10
f 9//9 13//13 16//16 12//12
f 10//10 14//14 13//13 9//9
f 10//10 17//17 20//20 14//14
f 11//11 18//18 17//17 10//10
f 12//12 16//16 15//15 11//11
f 14//14 15//15 16//16 13//13
f 14//14 20//20 19//19 15//15
f 15//15 19//19 18//18 11//11
f 17//17 21//21 24//24 20//20
f 18//18 22//22 21//21 17//17
f 19//19 23//23 22//22 18//18
f 20//20 24//24 23//23 19//19
f 21//21 49//49 52//52 24//24
f 22//22 50//50 49//49 21//21
f 23//23 51//51 50//50 22//22
f 24//24 52//52 51//51 23//23
f 25//25 29//29 32//32 28//28
f 25//25 56//56 60//60 26//26
f 26//26 30//30 29//29 25//25
f 26//26 60//60 64//64 27//27
f 27//27 31//31 30//30 26//26
f 27//27 64//64 68//68 28//28
f 28//28 32//32 31//31 27//27
f 28//28 68//68 56//56 25//25
f 30//30 31//31 32//32 29//29
f 33//33 37//37 57//57 53//53
f 33//33 49//49 50//50 37//37
f 34//34 38//38 58//58 54//54
f 34//34 53//53 57//57 38//38
f 35//35 39//39 59//59 55//55
f 35//35 54//54 58//58 39//39
f 36//36 40//40 60//60 56//56
f 36//36 55//55 59//59 40//40
f 37//37 41//41 61//61 57//57
f 37//37 50//50 51//51 41//41
f 38//38 42//42 62//62 58//58
f 38//38 57//57 61//61 42//42
f 39//39 43//43 63//63 59//59
f 39//39 58//58 62//62 43//43
f 40//40 44//44 64//64 60//60
f 40//40 59//59 63//63 44//44
f 41//41 45//45 65//65 61//61
f 41//41 51//51 52//52 45//45
f 42//42 46//46 66//66 62//62
f 42//42 61//61 65//65 46//46
f 43//43 47//47 67//67 63//63
f 43//43 62//62 66//66 47//47
f 44//44 48//48 68//68 64//64
f 44//44 63//63 67//67 48//48
f 45//45 52//52 49//49 33//33
f 46//46 65//65 53//53 34//34
f 47//47 66//66 54//54 35//35
f 48//48 67//67 55//55 36//36
f 53//53 65//65 45//45 33//33
f 54//54 66//66 46//46 34//34
f 55//55 67//67 47//47 35//35
f 56//56 68//68 48//48 36//36
g cube2_default2
usemtl default2
s 1
f 1//1 4//4 3//3 2//2
f 1//1 5//5 8//8 4//4
f 2//2 6//6 5//5 1//1
f 3//3 7//7 6//6 2//2
f 4//4 8//8 7//7 3//3
f 6//6 7//7 8//8 5//5
