# Exported from Wings 3D 1.5.1
mtllib singlespike.mtl
o DoubleSpike_cube1_sep46
#217 vertices, 140 faces
v 0.47365430 0.87650168 3.2408874e-3
v 0.35073178 0.21898080 0.17833691
v 8.9954289e-3 1.08425111 1.1966453e-2
v 0.49438876 0.85846585 1.3450699e-2
v 0.35073178 0.21898080 -0.17239486
v 0.35073178 0.21898080 0.17833691
v -0.39773289 0.15502331 -0.19587293
v -1.0209812e-2 1.13624469 -7.2387872e-3
v -0.84984314 0.66884219 -0.84687212
v 8.9578151e-18 1.23168618 2.9710245e-3
v -8.9954289e-3 1.08425111 1.1966453e-2
v -0.74940917 0.67212553 0.75238020
v -0.37470459 0.44040329 0.75238020
v -1.0479675e-2 0.85846585 0.49735979
v -2.6986287e-4 0.87650168 0.47662533
v 1.0479675e-2 0.85846585 0.49735979
v 2.6986287e-4 0.87650168 0.47662533
v 8.9954289e-3 1.08425111 1.1966453e-2
v 0.37470459 0.44040329 0.75238020
v 0.74940917 0.67212553 0.75238020
v 0.35073178 0.21898080 0.17833691
v 0.95639400 0.24709152 0.95936502
v 8.9954289e-3 1.08425111 -6.0244043e-3
v -8.9954289e-3 1.08425111 -6.0244043e-3
v 0.37470459 0.44040329 -0.74643815
v 0.74940917 0.67212553 -0.74643815
v 8.9954289e-3 1.08425111 -6.0244043e-3
v 1.0479675e-2 0.85846585 -0.49141774
v 2.6986287e-4 0.87650168 -0.47068328
v -2.6986287e-4 0.87650168 -0.47068328
v -1.0479675e-2 0.85846585 -0.49141774
v -8.9954289e-3 1.08425111 -6.0244043e-3
v -0.37470459 0.44040329 -0.74643815
v -0.74940917 0.67212553 -0.74643815
v 8.9578151e-18 1.23168618 2.9710245e-3
v -0.35073178 0.21898080 -0.17239486
v 0.35073178 0.21898080 -0.17239486
v 0.35073178 0.21898080 0.17833691
v -0.35073178 0.21898080 0.17833691
v 1.0209812e-2 1.13624469 1.3180836e-2
v 0.42494407 0.40613070 0.85281417
v -1.0209812e-2 1.13624469 1.3180836e-2
v -0.39773289 0.15502331 0.20181498
v 0.39773289 0.15502331 0.20181498
v -0.42494407 0.40613070 0.85281417
v -0.84984314 0.66884219 0.85281417
v -1.1918943e-2 0.88018980 0.56356615
v -2.6986287e-4 0.90060943 0.54008808
v 1.1918943e-2 0.88018980 0.56356615
v 2.6986287e-4 0.90060943 0.54008808
v 0.84984314 0.66884219 0.85281417
v 8.9578151e-18 1.30346970 2.9710245e-3
v 1.0209812e-2 1.13624469 -7.2387872e-3
v 0.42494407 0.40613070 -0.84687212
v 0.84984314 0.66884219 -0.84687212
v 1.1918943e-2 0.88018980 -0.55762411
v 2.6986287e-4 0.90060943 -0.53414603
v -2.6986287e-4 0.90060943 -0.53414603
v -1.1918943e-2 0.88018980 -0.55762411
v -1.0209812e-2 1.13624469 -7.2387872e-3
v -0.42494407 0.40613070 -0.84687212
v -0.84984314 0.66884219 -0.84687212
v -0.39773289 0.15502331 -0.19587293
v 0.39773289 0.15502331 -0.19587293
v 8.9578151e-18 1.30346970 2.9710245e-3
v 0.56059513 0.88018980 1.4889968e-2
v 0.56059513 0.88018980 -8.9479187e-3
v 0.53711705 0.90060943 3.2408874e-3
v 0.53711705 0.90060943 2.7011617e-3
v 1.0209812e-2 1.13624469 -7.2387872e-3
v 0.39773289 0.15502331 -0.19587293
v 0.56059513 0.88018980 -8.9479187e-3
v 1.0209812e-2 1.13624469 1.3180836e-2
v 0.39773289 0.15502331 0.20181498
v 0.56059513 0.88018980 1.4889968e-2
v -1.0209812e-2 1.13624469 -7.2387872e-3
v -0.39773289 0.15502331 -0.19587293
v -0.53711705 0.90060943 2.7011617e-3
v -0.53711705 0.90060943 3.2408874e-3
v -0.56059513 0.88018980 -8.9479187e-3
v -0.56059513 0.88018980 1.4889968e-2
v -0.39773289 0.15502331 0.20181498
v -1.0209812e-2 1.13624469 1.3180836e-2
v -0.56059513 0.88018980 -8.9479187e-3
v -0.47365430 0.87650168 2.7011617e-3
v -0.47365430 0.87650168 3.2408874e-3
v -0.49438876 0.85846585 -7.5086501e-3
v -0.49438876 0.85846585 1.3450699e-2
v -8.9954289e-3 1.08425111 -6.0244043e-3
v 0.47365430 0.87650168 2.7011617e-3
v 0.49438876 0.85846585 -7.5086501e-3
v 0.47365430 0.87650168 3.2408874e-3
v 0.49438876 0.85846585 1.3450699e-2
v 8.9954289e-3 1.08425111 -6.0244043e-3
v -0.35073178 0.21898080 0.17833691
v 0.37470459 0.44040329 0.75238020
v 0.35073178 0.21898080 0.17833691
v -0.37470459 0.44040329 0.75238020
v -0.42494407 0.40613070 -0.84687212
v -1.08457886 0.18691209 -1.08160784
v -0.84984314 0.66884219 -0.84687212
v -0.39773289 0.15502331 -0.19587293
v 0.37470459 0.44040329 -0.74643815
v 0.95639400 0.24709152 -0.95342298
v 0.74940917 0.67212553 -0.74643815
v 0.35073178 0.21898080 -0.17239486
v 0.39773289 0.15502331 -0.19587293
v 0.56059513 0.88018980 1.4889968e-2
v 0.56059513 0.88018980 -8.9479187e-3
v 0.39773289 0.15502331 0.20181498
v -0.56059513 0.88018980 1.4889968e-2
v -0.39773289 0.15502331 0.20181498
v -0.39773289 0.15502331 -0.19587293
v -0.56059513 0.88018980 -8.9479187e-3
v -8.9954289e-3 1.08425111 -6.0244043e-3
v -0.35073178 0.21898080 -0.17239486
v -0.47365430 0.87650168 2.7011617e-3
v -0.49438876 0.85846585 -7.5086501e-3
v 0.35073178 0.21898080 0.17833691
v 0.95639400 0.24709152 0.95936502
v 0.37470459 0.44040329 0.75238020
v 0.74940917 0.67212553 0.75238020
v -0.74940917 0.67212553 0.75238020
v -0.95639400 0.24709152 0.95936502
v -0.35073178 0.21898080 0.17833691
v -8.9954289e-3 1.08425111 1.1966453e-2
v -0.42494407 0.40613070 0.85281417
v -0.84984314 0.66884219 0.85281417
v -1.08457886 0.18691209 1.08754989
v -0.39773289 0.15502331 0.20181498
v -0.37470459 0.44040329 -0.74643815
v -0.74940917 0.67212553 -0.74643815
v -0.95639400 0.24709152 -0.95342298
v -0.35073178 0.21898080 -0.17239486
v 0.39773289 0.15502331 0.20181498
v 1.08457886 0.18691209 1.08754989
v 0.42494407 0.40613070 0.85281417
v 0.84984314 0.66884219 0.85281417
v 0.39773289 0.15502331 -0.19587293
v 0.39773289 0.15502331 0.20181498
v -0.39773289 0.15502331 -0.19587293
v -0.39773289 0.15502331 0.20181498
v 0.39773289 0.15502331 -0.19587293
v 0.42494407 0.40613070 -0.84687212
v 1.08457886 0.18691209 -1.08160784
v 0.84984314 0.66884219 -0.84687212
v -0.35073178 0.21898080 0.17833691
v -0.95639400 0.24709152 0.95936502
v -0.37470459 0.44040329 0.75238020
v -0.74940917 0.67212553 0.75238020
v 8.9954289e-3 1.08425111 -6.0244043e-3
v 0.35073178 0.21898080 -0.17239486
v 0.47365430 0.87650168 2.7011617e-3
v 0.49438876 0.85846585 -7.5086501e-3
v 0.39773289 0.15502331 0.20181498
v 0.84984314 0.66884219 0.85281417
v 1.0209812e-2 1.13624469 1.3180836e-2
v -0.49438876 0.85846585 1.3450699e-2
v -0.35073178 0.21898080 -0.17239486
v -0.35073178 0.21898080 0.17833691
v 8.9954289e-3 1.08425111 -6.0244043e-3
v 8.9954289e-3 1.08425111 1.1966453e-2
v 0.47365430 0.87650168 3.2408874e-3
v 0.74940917 0.67212553 -0.74643815
v 8.9954289e-3 1.08425111 -6.0244043e-3
v 0.35073178 0.21898080 -0.17239486
v 0.47365430 0.87650168 3.2408874e-3
v 0.35073178 0.21898080 0.17833691
v 0.49438876 0.85846585 1.3450699e-2
v 0.49438876 0.85846585 -7.5086501e-3
v 0.49438876 0.85846585 1.3450699e-2
v 0.35073178 0.21898080 -0.17239486
v 0.84984314 0.66884219 0.85281417
v 1.08457886 0.18691209 1.08754989
v 0.39773289 0.15502331 0.20181498
v 0.39773289 0.15502331 -0.19587293
v 1.08457886 0.18691209 -1.08160784
v 0.84984314 0.66884219 -0.84687212
v -1.08457886 0.18691209 1.08754989
v -0.84984314 0.66884219 0.85281417
v -0.39773289 0.15502331 0.20181498
v 0.84984314 0.66884219 -0.84687212
v 1.0209812e-2 1.13624469 -7.2387872e-3
v 0.39773289 0.15502331 -0.19587293
v 8.9578151e-18 1.30346970 2.9710245e-3
v 1.0209812e-2 1.13624469 1.3180836e-2
v 1.0209812e-2 1.13624469 -7.2387872e-3
v 8.9578151e-18 1.30346970 2.9710245e-3
v -1.0209812e-2 1.13624469 -7.2387872e-3
v -1.0209812e-2 1.13624469 1.3180836e-2
v -0.84984314 0.66884219 0.85281417
v -1.0209812e-2 1.13624469 1.3180836e-2
v -0.39773289 0.15502331 0.20181498
v -0.49438876 0.85846585 -7.5086501e-3
v -0.49438876 0.85846585 1.3450699e-2
v -0.35073178 0.21898080 -0.17239486
v -0.47365430 0.87650168 3.2408874e-3
v -0.35073178 0.21898080 0.17833691
v -0.49438876 0.85846585 1.3450699e-2
v -0.47365430 0.87650168 3.2408874e-3
v -8.9954289e-3 1.08425111 1.1966453e-2
v -0.35073178 0.21898080 0.17833691
v -0.35073178 0.21898080 -0.17239486
v -0.95639400 0.24709152 -0.95342298
v -0.74940917 0.67212553 -0.74643815
v -0.74940917 0.67212553 -0.74643815
v -8.9954289e-3 1.08425111 -6.0244043e-3
v -0.35073178 0.21898080 -0.17239486
v -8.9954289e-3 1.08425111 -6.0244043e-3
v -8.9954289e-3 1.08425111 1.1966453e-2
v -0.47365430 0.87650168 3.2408874e-3
v 0.95639400 0.24709152 -0.95342298
v 0.35073178 0.21898080 -0.17239486
v 0.74940917 0.67212553 -0.74643815
v -0.84984314 0.66884219 -0.84687212
v -1.08457886 0.18691209 -1.08160784
v -0.39773289 0.15502331 -0.19587293
vt 5.2867000e-2 0.71188000
vt 9.7933000e-2 0.25006200
vt 0.18477300 0.87853000
vt 0.19530000 0.73234200
vt 0.20794800 0.91330600
vt 0.22064200 0.93841800
vt 0.22777300 0.75131900
vt 0.22915200 0.75151700
vt 0.23194700 0.75239500
vt 0.23198800 0.75240000
vt 0.24017600 0.74020100
vt 0.24391000 0.27722500
vt 0.24745400 0.74108000
vt 0.25078900 0.74099300
vt 0.26722700 0.28036900
vt 0.27742200 0.28029200
vt 0.29847900 0.75510300
vt 0.30005700 0.75589500
vt 0.30009300 0.75589500
vt 0.30019300 0.75510500
vt 0.31465300 0.77324900
vt 0.31699800 0.77570500
vt 0.31756200 0.77447400
vt 0.31817900 0.77325000
vt 0.32044800 0.77570600
vt 0.32146100 0.74099000
vt 0.32495700 0.74107400
vt 0.33061600 0.74021000
vt 0.36077700 0.73234400
vt 0.36180100 0.75241100
vt 0.36183400 0.75240700
vt 0.36298000 0.75152900
vt 0.36398500 0.75133100
vt 0.39295400 0.38547300
vt 0.39453300 0.86290900
vt 0.39609600 0.38811400
vt 0.39640800 0.85859500
vt 0.39663400 0.85859500
vt 0.39897200 0.38675100
vt 0.39907300 0.38683600
vt 0.40661200 0.86290700
vt 0.42334700 0.52352400
vt 0.43937500 0.32856700
vt 0.44455700 0.32856700
vt 0.44519600 0.33132400
vt 0.44529800 0.33132400
vt 0.46484500 0.71188000
vt 0.49162000 0.28029200
vt 0.50199400 0.28036800
vt 0.50467800 0.49636200
vt 0.50488100 0.38447400
vt 0.51041100 0.38911400
vt 0.51125400 0.38679300
vt 0.51209800 0.38447200
vt 0.51762800 0.38911300
vt 0.51783000 0.27722500
vt 0.52051500 0.49321800
vt 0.53088800 0.49329400
vt 0.57721000 0.44226200
vt 0.57731300 0.44226200
vt 0.57795200 0.44502000
vt 0.58313400 0.44502000
vt 0.59916100 0.25006200
vt 0.62343500 0.38675100
vt 0.62353600 0.38683600
vt 0.62641200 0.38547300
vt 0.62955400 0.38811300
vt 0.64576900 0.87847200
vt 0.68788600 0.91323900
vt 0.72232800 0.93834100
vt 0.74508700 0.49329500
vt 0.75528200 0.49321800
vt 0.77859900 0.49636100
vt 0.82098400 0.69435600
vt 0.82098400 0.74241100
vt 0.83138400 0.93461400
vt 0.83428200 0.86027300
vt 0.91709300 0.69435600
vt 0.91709300 0.74241100
vt 0.91903300 0.86027300
vt 0.92193100 0.93461400
vt 0.92457500 0.52352400
vn 0.12269012 0.23390368 0.96448753
vn 0.12269012 0.23390368 0.96448753
vn 0.12269012 0.23390368 0.96448753
vn 0.97568392 -0.21918230 0.0000000e+0
vn 0.97568392 -0.21918230 0.0000000e+0
vn 0.97568392 -0.21918230 0.0000000e+0
vn 0.74231589 -0.16849593 -0.64851849
vn 0.74231589 -0.16849593 -0.64851849
vn 0.74231589 -0.16849593 -0.64851849
vn 0.0000000e+0 0.18004723 0.98365797
vn -0.40184441 0.68007578 0.61320307
vn 0.37203031 0.60158862 0.70688371
vn -8.5306971e-2 0.69551051 0.71343385
vn -0.26038386 0.70544528 0.65920194
vn -0.12537483 0.84810599 0.51477897
vn 0.25788040 0.74892944 0.61041166
vn 0.21158839 0.84357798 0.49356514
vn 0.46520733 0.75562299 0.46110306
vn 6.2348182e-2 0.65147912 0.75610030
vn 0.75038899 0.55458782 -0.35965082
vn 0.76510527 0.12662896 -0.63133116
vn 0.78593826 8.4456997e-2 -0.61250965
vn 0.99814390 6.0899571e-2 0.0000000e+0
vn -0.99814390 6.0899571e-2 0.0000000e+0
vn 6.4544226e-2 0.14341491 -0.98755567
vn -0.37203031 0.60158862 -0.70688371
vn 0.16093203 0.76682092 -0.62135864
vn 0.25788040 0.74892944 -0.61041166
vn 0.21158839 0.84357798 -0.49356514
vn -0.12537483 0.84810599 -0.51477897
vn -0.26038386 0.70544528 -0.65920194
vn -0.19708882 0.72156718 -0.66369933
vn -9.2721223e-2 0.37454649 -0.92256040
vn 0.37203031 0.60158862 -0.70688371
vn 0.0000000e+0 6.0899570e-2 -0.99814390
vn 0.0000000e+0 -0.96988226 -0.24357421
vn 0.0000000e+0 -0.99255625 -0.12178711
vn 0.0000000e+0 -1.00000000 0.0000000e+0
vn 0.0000000e+0 -1.00000000 0.0000000e+0
vn -0.16027103 -0.76695434 -0.62136481
vn -6.4541651e-2 -0.14348768 -0.98754527
vn 0.19627189 -0.72179070 -0.66369837
vn 0.0000000e+0 0.93299795 -0.35988168
vn 0.0000000e+0 0.93299795 -0.35988168
vn 9.2714958e-2 -0.37460479 -0.92253736
vn -0.37197713 -0.60162095 -0.70688419
vn 0.25962016 -0.70573751 -0.65919037
vn 0.12467977 -0.84820084 -0.51479150
vn -0.25712289 -0.74918983 -0.61041168
vn -0.21038047 -0.84383280 -0.49364588
vn 0.37197713 -0.60162095 -0.70688419
vn 0.0000000e+0 -6.0940856e-2 -0.99814138
vn -0.16027100 -0.76695435 0.62136481
vn -6.4541654e-2 -0.14348767 0.98754527
vn 0.37197713 -0.60162095 0.70688419
vn -0.25712285 -0.74918990 0.61041161
vn -0.21038040 -0.84383286 0.49364582
vn 0.12467973 -0.84820089 0.51479142
vn 0.25962012 -0.70573755 0.65919034
vn 0.19627184 -0.72179072 0.66369837
vn 9.2714962e-2 -0.37460479 0.92253736
vn -0.37197713 -0.60162095 0.70688419
vn 0.0000000e+0 0.93299795 0.35988168
vn 0.0000000e+0 0.93299795 0.35988168
vn 0.0000000e+0 -6.0940858e-2 0.99814138
vn -0.65625023 -0.75454332 0.0000000e+0
vn -0.65625023 -0.75454332 0.0000000e+0
vn -0.42860791 -0.81064921 -0.39892746
vn -0.31884497 -0.71618615 0.62081824
vn -0.38172621 -0.83704882 0.39196221
vn 4.5484680e-2 -0.26502640 0.96316777
vn 0.21243857 -0.28837706 0.93365332
vn -0.33403993 -0.72135942 -0.60667777
vn 4.5484683e-2 -0.26502641 -0.96316777
vn 0.21243858 -0.28837706 -0.93365332
vn 0.38172621 -0.83704882 0.39196221
vn -4.5484680e-2 -0.26502640 0.96316777
vn 0.31884497 -0.71618615 0.62081824
vn 0.42860791 -0.81064921 -0.39892746
vn 0.65625023 -0.75454332 0.0000000e+0
vn 0.30223033 -0.71021608 -0.63580654
vn -4.5484683e-2 -0.26502641 -0.96316777
vn 0.33403993 -0.72135942 -0.60667777
vn -0.21243857 -0.28837706 0.93365332
vn -0.53809262 0.84288572 0.0000000e+0
vn -0.57919215 0.81519105 0.0000000e+0
vn -0.65630023 0.75449984 0.0000000e+0
vn -0.65630023 0.75449984 0.0000000e+0
vn -0.40816260 0.91290924 0.0000000e+0
vn 0.53809262 0.84288572 0.0000000e+0
vn 0.65630023 0.75449984 0.0000000e+0
vn 0.57919215 0.81519105 0.0000000e+0
vn 0.65630023 0.75449984 0.0000000e+0
vn 0.40816260 0.91290924 0.0000000e+0
vn 0.0000000e+0 -0.93299850 0.35988026
vn 0.0000000e+0 -0.93299850 0.35988026
vn 0.0000000e+0 -0.93299850 0.35988026
vn 0.0000000e+0 -0.93299850 0.35988026
vn -0.41338809 0.33896445 0.84511147
vn -0.41338809 0.33896445 0.84511147
vn -0.21184202 -0.34262482 0.91527656
vn -0.40406163 0.84764528 0.34384834
vn -0.41337637 -0.33900434 -0.84510120
vn -0.41337637 -0.33900434 -0.84510120
vn -0.21184852 0.34256795 -0.91529635
vn -0.40404853 -0.84765674 -0.34383547
vn -0.97569619 0.21912770 0.0000000e+0
vn -0.97569619 0.21912770 0.0000000e+0
vn -0.97569619 0.21912770 0.0000000e+0
vn -0.97569619 0.21912770 0.0000000e+0
vn 0.97569619 0.21912770 0.0000000e+0
vn 0.97569619 0.21912770 0.0000000e+0
vn 0.97569619 0.21912770 0.0000000e+0
vn 0.97569619 0.21912770 0.0000000e+0
vn -0.12269013 0.23390368 -0.96448753
vn 4.4081027e-2 0.26476627 -0.96330457
vn 4.4081027e-2 0.26476627 -0.96330457
vn 0.20958412 0.28801245 -0.93441068
vn -0.40404853 -0.84765674 0.34383547
vn -0.41337636 -0.33900435 0.84510120
vn -0.41337636 -0.33900435 0.84510120
vn -0.21184852 0.34256793 0.91529636
vn -0.76510527 0.12662896 -0.63133116
vn -0.78593826 8.4456997e-2 -0.61250965
vn -0.76510527 0.12662896 -0.63133116
vn -0.74230846 0.16847589 -0.64853221
vn -0.41338809 0.33896445 -0.84511147
vn -0.21184202 -0.34262482 -0.91527656
vn -0.41338809 0.33896445 -0.84511147
vn -0.40406163 0.84764528 -0.34384834
vn 0.41337637 -0.33900434 -0.84510120
vn 0.21184852 0.34256795 -0.91529635
vn 0.41337637 -0.33900434 -0.84510120
vn 0.40404853 -0.84765674 -0.34383547
vn 0.40406163 0.84764528 -0.34384834
vn 0.41338809 0.33896445 -0.84511147
vn 0.41338809 0.33896445 -0.84511147
vn 0.21184202 -0.34262482 -0.91527656
vn 0.0000000e+0 1.00000000 0.0000000e+0
vn 0.0000000e+0 1.00000000 0.0000000e+0
vn 0.0000000e+0 1.00000000 0.0000000e+0
vn 0.0000000e+0 1.00000000 0.0000000e+0
vn 0.40406163 0.84764528 0.34384834
vn 0.41338809 0.33896445 0.84511147
vn 0.41338809 0.33896445 0.84511147
vn 0.21184202 -0.34262482 0.91527656
vn 0.40404853 -0.84765674 0.34383547
vn 0.41337636 -0.33900435 0.84510120
vn 0.41337636 -0.33900435 0.84510120
vn 0.21184852 0.34256793 0.91529636
vn 0.12269013 0.23390368 -0.96448753
vn -4.4081027e-2 0.26476627 -0.96330457
vn -4.4081027e-2 0.26476627 -0.96330457
vn -0.20958412 0.28801245 -0.93441068
vn -0.74231589 -0.16849593 0.64851849
vn -0.74231589 -0.16849593 0.64851849
vn -0.74231589 -0.16849593 0.64851849
vn -0.97568392 -0.21918230 0.0000000e+0
vn -0.97568392 -0.21918230 0.0000000e+0
vn -0.97568392 -0.21918230 0.0000000e+0
vn 0.40816260 0.91290924 0.0000000e+0
vn 0.40816260 0.91290924 0.0000000e+0
vn 0.40816260 0.91290924 0.0000000e+0
vn 0.74230846 0.16847589 0.64853221
vn 0.74230846 0.16847589 0.64853221
vn 0.74230846 0.16847589 0.64853221
vn -0.20958411 0.28801245 0.93441068
vn -0.20958411 0.28801245 0.93441068
vn -0.20958411 0.28801245 0.93441068
vn 0.97568392 -0.21918230 0.0000000e+0
vn 0.97568392 -0.21918230 0.0000000e+0
vn 0.97568392 -0.21918230 0.0000000e+0
vn -0.78594167 -8.4477792e-2 0.61250240
vn -0.78594167 -8.4477792e-2 0.61250240
vn -0.78594167 -8.4477792e-2 0.61250240
vn -0.78594167 -8.4477792e-2 -0.61250240
vn -0.78594167 -8.4477792e-2 -0.61250240
vn -0.78594167 -8.4477792e-2 -0.61250240
vn 0.78594167 -8.4477792e-2 0.61250240
vn 0.78594167 -8.4477792e-2 0.61250240
vn 0.78594167 -8.4477792e-2 0.61250240
vn -0.74231589 -0.16849593 -0.64851849
vn -0.74231589 -0.16849593 -0.64851849
vn -0.74231589 -0.16849593 -0.64851849
vn -0.99814138 -6.0940859e-2 0.0000000e+0
vn -0.99814138 -6.0940859e-2 0.0000000e+0
vn -0.99814138 -6.0940859e-2 0.0000000e+0
vn 0.99814138 -6.0940859e-2 0.0000000e+0
vn 0.99814138 -6.0940859e-2 0.0000000e+0
vn 0.99814138 -6.0940859e-2 0.0000000e+0
vn 0.74231589 -0.16849593 0.64851849
vn 0.74231589 -0.16849593 0.64851849
vn 0.74231589 -0.16849593 0.64851849
vn -0.97568392 -0.21918230 0.0000000e+0
vn -0.97568392 -0.21918230 0.0000000e+0
vn -0.97568392 -0.21918230 0.0000000e+0
vn 0.20958411 0.28801245 0.93441068
vn 0.20958411 0.28801245 0.93441068
vn 0.20958411 0.28801245 0.93441068
vn -0.12269012 0.23390368 0.96448753
vn -0.12269012 0.23390368 0.96448753
vn -0.12269012 0.23390368 0.96448753
vn -0.78593826 8.4456987e-2 0.61250965
vn -0.78593826 8.4456987e-2 0.61250965
vn -0.78593826 8.4456987e-2 0.61250965
vn -0.74230846 0.16847589 0.64853221
vn -0.74230846 0.16847589 0.64853221
vn -0.74230846 0.16847589 0.64853221
vn -0.40816260 0.91290924 0.0000000e+0
vn -0.40816260 0.91290924 0.0000000e+0
vn -0.40816260 0.91290924 0.0000000e+0
vn 0.78593826 8.4456987e-2 0.61250965
vn 0.78593826 8.4456987e-2 0.61250965
vn 0.78593826 8.4456987e-2 0.61250965
vn 0.78594167 -8.4477792e-2 -0.61250240
vn 0.78594167 -8.4477792e-2 -0.61250240
vn 0.78594167 -8.4477792e-2 -0.61250240
g DoubleSpike_cube1_sep46_cube1_au
usemtl cube1_au
s 1
f 1/9/1 3/22/3 2/1/2
f 4/7/4 6/1/6 5/4/5
f 7/2/7 9/12/9 8/51/8
f 10/23/10 24/24/24 11/25/11
f 11/25/11 18/22/18 10/23/10
f 12/68/12 13/70/13 11/25/11
f 13/70/13 14/41/14 11/25/11
f 13/70/13 19/6/19 14/41/14
f 14/41/14 15/38/15 11/25/11
f 14/41/14 16/35/16 15/38/15
f 14/41/14 19/6/19 16/35/16
f 15/38/15 18/22/18 11/25/11
f 16/35/16 17/37/17 15/38/15
f 16/35/16 18/22/18 17/37/17
f 16/35/16 19/6/19 18/22/18
f 17/37/17 18/22/18 15/38/15
f 18/22/18 23/21/23 10/23/10
f 19/6/19 20/3/20 18/22/18
f 20/3/20 21/1/21 18/22/18
f 20/3/20 22/5/22 21/1/21
f 25/14/25 27/21/27 26/11/26
f 25/14/25 28/17/28 27/21/27
f 25/14/25 31/20/31 28/17/28
f 25/14/25 33/26/33 31/20/31
f 25/14/25 36/29/36 33/26/33
f 25/14/25 37/4/37 36/29/36
f 28/17/28 29/18/29 27/21/27
f 28/17/28 30/19/30 29/18/29
f 28/17/28 31/20/31 30/19/30
f 29/18/29 30/19/30 27/21/27
f 30/19/30 32/24/32 27/21/27
f 31/20/31 32/24/32 30/19/30
f 31/20/31 33/26/33 32/24/32
f 32/24/32 35/23/35 27/21/27
f 33/26/33 34/28/34 32/24/32
f 37/4/37 39/47/39 36/29/36
f 38/1/38 39/47/39 37/4/37
f 40/55/40 48/59/48 42/52/42
f 40/55/40 50/60/50 48/59/48
f 40/55/40 51/73/51 41/71/41
f 41/71/41 44/82/44 43/42/43
f 41/71/41 49/62/49 40/55/40
f 42/52/42 47/61/47 45/58/45
f 42/52/42 48/59/48 47/61/47
f 42/52/42 52/53/52 40/55/40
f 43/42/43 45/58/45 41/71/41
f 45/58/45 46/50/46 42/52/42
f 45/58/45 47/61/47 41/71/41
f 47/61/47 49/62/49 41/71/41
f 48/59/48 49/62/49 47/61/47
f 48/59/48 50/60/50 49/62/49
f 49/62/49 50/60/50 40/55/40
f 53/54/53 56/44/56 54/48/54
f 53/54/53 57/46/57 56/44/56
f 53/54/53 58/45/58 57/46/57
f 53/54/53 60/51/60 58/45/58
f 53/54/53 65/53/65 60/51/60
f 54/48/54 55/56/55 53/54/53
f 56/44/56 59/43/59 54/48/54
f 57/46/57 58/45/58 56/44/56
f 58/45/58 59/43/59 56/44/56
f 58/45/58 60/51/60 59/43/59
f 59/43/59 61/16/61 54/48/54
f 60/51/60 61/16/61 59/43/59
f 60/51/60 62/12/62 61/16/61
f 61/16/61 63/2/63 54/48/54
f 63/2/63 64/63/64 54/48/54
f 66/67/66 68/65/68 67/66/67
f 68/65/68 69/64/69 67/66/67
f 68/65/68 70/54/70 69/64/69
f 68/65/68 73/55/73 70/54/70
f 68/65/68 74/82/74 73/55/73
f 68/65/68 75/67/75 74/82/74
f 70/54/70 71/63/71 69/64/69
f 71/63/71 72/66/72 69/64/69
f 76/51/76 78/39/78 77/2/77
f 76/51/76 79/40/79 78/39/78
f 76/51/76 83/52/83 79/40/79
f 78/39/78 84/34/84 77/2/77
f 79/40/79 80/34/80 78/39/78
f 79/40/79 81/36/81 80/34/80
f 79/40/79 82/42/82 81/36/81
f 79/40/79 83/52/83 82/42/82
f 85/30/85 87/32/87 86/31/86
f 86/31/86 89/24/89 85/30/85
f 87/32/87 88/33/88 86/31/86
f 90/10/90 92/9/92 91/8/91
f 90/10/90 94/21/94 92/9/92
f 92/9/92 93/7/93 91/8/91
f 95/77/95 97/80/97 96/81/96
f 96/81/96 98/76/98 95/77/95
f 99/16/99 101/12/101 100/15/100
f 100/15/100 102/2/102 99/16/99
f 103/14/103 105/11/105 104/13/104
f 104/13/104 106/4/106 103/14/103
f 107/63/107 110/82/110 108/67/108
f 108/67/108 109/66/109 107/63/107
f 112/42/112 113/2/113 111/36/111
f 113/2/113 114/34/114 111/36/111
f 116/29/116 117/30/117 115/24/115
f 116/29/116 118/32/118 117/30/117
f 120/5/120 121/6/121 119/1/119
f 120/5/120 122/3/122 121/6/121
f 123/68/123 125/47/125 124/69/124
f 123/68/123 126/25/126 125/47/125
f 127/58/127 129/57/129 128/50/128
f 127/58/127 130/42/130 129/57/129
f 131/26/131 133/27/133 132/28/132
f 131/26/131 134/29/134 133/27/133
f 135/82/135 137/71/137 136/72/136
f 137/71/137 138/73/138 136/72/136
f 139/74/139 141/78/141 140/75/140
f 141/78/141 142/79/142 140/75/140
f 143/63/143 145/49/145 144/48/144
f 145/49/145 146/56/146 144/48/144
f 147/47/147 149/70/149 148/69/148
f 149/70/149 150/68/150 148/69/148
f 151/21/151 153/10/153 152/4/152
f 153/10/153 154/8/154 152/4/152
f 156/73/156 157/55/157 155/82/155
f 159/29/159 160/47/160 158/33/158
f 162/22/162 163/9/163 161/21/161
f 165/21/165 166/4/166 164/11/164
f 168/1/168 169/7/169 167/9/167
f 171/7/171 172/4/172 170/8/170
f 173/73/173 175/82/175 174/72/174
f 176/63/176 178/56/178 177/49/177
f 179/57/179 181/42/181 180/50/180
f 182/56/182 184/63/184 183/54/183
f 185/53/185 187/54/187 186/55/186
f 188/53/188 190/52/190 189/51/189
f 191/50/191 193/42/193 192/52/192
f 194/32/194 196/29/196 195/33/195
f 197/31/197 199/33/199 198/47/198
f 200/31/200 202/47/202 201/25/201
f 203/29/203 205/28/205 204/27/204
f 206/28/206 208/29/208 207/24/207
f 209/24/209 211/31/211 210/25/210
f 212/13/212 214/11/214 213/4/213
f 215/12/215 217/2/217 216/15/216
